<?xml version="1.0" encoding="UTF-8" standalone="no"?><!DOCTYPE svg PUBLIC "-//W3C//DTD SVG 1.1//EN" "http://www.w3.org/Graphics/SVG/1.1/DTD/svg11.dtd"><svg width="100%" height="100%" viewBox="0 0 1667 1667" version="1.1" xmlns="http://www.w3.org/2000/svg" xmlns:xlink="http://www.w3.org/1999/xlink" xml:space="preserve" xmlns:serif="http://www.serif.com/" style="fill-rule:evenodd;clip-rule:evenodd;stroke-linejoin:round;stroke-miterlimit:2;"><path d="M1666.67,833.333c-0,460.417 -372.917,833.334 -833.334,833.334c-460.416,-0 -833.333,-372.917 -833.333,-833.334c-0,-460.416 372.917,-833.333 833.333,-833.333c460.417,0 833.334,372.917 833.334,833.333Zm-985.834,439.584c369.584,-0 571.667,-306.25 571.667,-571.667c0,-8.75 0,-17.5 -0.417,-25.833c39.167,-28.334 73.334,-63.75 100.417,-104.167c-35.833,15.833 -74.583,26.667 -115.417,31.667c41.667,-25 73.334,-64.167 88.334,-111.25c-38.75,22.916 -81.667,39.583 -127.5,48.75c-36.667,-39.167 -88.75,-63.334 -146.667,-63.334c-110.833,0 -200.833,90 -200.833,200.834c-0,15.833 1.666,31.25 5.416,45.833c-167.083,-8.333 -315,-88.333 -414.166,-210c-17.084,29.583 -27.084,64.167 -27.084,100.833c0,69.584 35.417,131.25 89.584,167.084c-32.917,-0.834 -63.75,-10 -90.834,-25l0,2.5c0,97.5 69.167,178.333 161.25,197.083c-16.666,4.583 -34.583,7.083 -52.916,7.083c-12.917,0 -25.417,-1.25 -37.917,-3.75c25.417,80 99.583,137.917 187.5,139.584c-68.75,53.75 -155.417,85.833 -249.583,85.833c-16.25,0 -32.084,-0.833 -47.917,-2.917c87.917,57.5 193.75,90.834 307.083,90.834" style="fill:#fff;fill-rule:nonzero;"/></svg>